<svg xmlns="http://www.w3.org/2000/svg" viewBox="0 0 500 500" width="500" height="500" preserveAspectRatio="xMidYMid meet" style="width: 100%; height: 100%; transform: translate3d(0px, 0px, 0px); content-visibility: visible;"><defs><clipPath id="__lottie_element_168"><rect width="500" height="500" x="0" y="0"></rect></clipPath></defs><g clip-path="url(#__lottie_element_168)"><g style="display: none;" transform="matrix(0.20000000298023224,0,0,0.20000000298023224,200.56900024414062,200)" opacity="1"><g opacity="1" transform="matrix(1,0,0,1,250,250)"><path fill="rgb(36,85,174)" fill-opacity="1" d=" M0,-250 C138.0709991455078,-250 250,-138.0709991455078 250,0 C250,138.0709991455078 138.0709991455078,250 0,250 C-138.0709991455078,250 -250,138.0709991455078 -250,0 C-250,-138.0709991455078 -138.0709991455078,-250 0,-250z"></path></g><g opacity="1" transform="matrix(1,0,0,1,249.8730010986328,250)"><path fill="rgb(215,232,245)" fill-opacity="1" d=" M147.36399841308594,-123.60700225830078 C147.36399841308594,-123.60700225830078 149.0709991455078,-123.2760009765625 149.0709991455078,-123.2760009765625 C149.5290069580078,-123.01499938964844 150.01100158691406,-122.78500366210938 150.50100708007812,-122.56400299072266 C151.1219940185547,-122.0009994506836 151.68099975585938,-121.3740005493164 152.2519989013672,-120.75800323486328 C152.58700561523438,-119.93199920654297 152.96299743652344,-119.12200164794922 153.31100463867188,-118.2969970703125 C153.31100463867188,-118.2969970703125 152.30999755859375,-113.13700103759766 152.30999755859375,-113.13700103759766 C151.781005859375,-112.27100372314453 151.56199645996094,-111.26799774169922 151.1649932861328,-110.34200286865234 C150.947998046875,-109.61900329589844 150.75799560546875,-108.89299774169922 150.5570068359375,-108.16300201416016 C150.2030029296875,-107.37300109863281 149.91400146484375,-106.5510025024414 149.59300231933594,-105.74299621582031 C149.3520050048828,-105.08100128173828 149.1179962158203,-104.41899871826172 148.84500122070312,-103.76699829101562 C148.6719970703125,-103.27100372314453 148.50799560546875,-102.77200317382812 148.34100341796875,-102.27100372314453 C147.77699279785156,-100.86599731445312 147.33799743652344,-99.41400146484375 146.7969970703125,-98.0009994506836 C146.5260009765625,-97.36299896240234 146.30099487304688,-96.70800018310547 146.0760040283203,-96.05699920654297 C145.24600219726562,-94.0719985961914 144.65699768066406,-91.99500274658203 143.72000122070312,-90.05500030517578 C143.5489959716797,-89.5510025024414 143.39100646972656,-89.04100036621094 143.2259979248047,-88.53600311279297 C142.9429931640625,-87.89600372314453 142.70700073242188,-87.23799896240234 142.4720001220703,-86.58200073242188 C142.20799255371094,-85.93199920654297 141.97799682617188,-85.27100372314453 141.7519989013672,-84.60700225830078 C141.42100524902344,-83.80899810791016 141.13999938964844,-82.98999786376953 140.7969970703125,-82.1969985961914 C140.6280059814453,-81.68900299072266 140.47000122070312,-81.18000030517578 140.31100463867188,-80.6709976196289 C140.0590057373047,-80.14399719238281 139.83099365234375,-79.60199737548828 139.60299682617188,-79.06400299072266 C139.34500122070312,-78.41600036621094 139.11500549316406,-77.76000213623047 138.88699340820312,-77.10299682617188 C138.61700439453125,-76.45700073242188 138.38699340820312,-75.79299926757812 138.15699768066406,-75.13300323486328 C137.82699584960938,-74.33699798583984 137.55799865722656,-73.52200317382812 137.24099731445312,-72.7249984741211 C137.00599670410156,-72.18099975585938 136.77999877929688,-71.63200378417969 136.531005859375,-71.09100341796875 C136.36900329589844,-70.59600067138672 136.21299743652344,-70.0979995727539 136.0570068359375,-69.5989990234375 C135.427001953125,-68.16000366210938 134.97799682617188,-66.64600372314453 134.3459930419922,-65.20800018310547 C134.17799377441406,-64.70099639892578 134.01499938964844,-64.18900299072266 133.8560028076172,-63.68000030517578 C133.6060028076172,-63.14899826049805 133.3719940185547,-62.61199951171875 133.14500427246094,-62.07400131225586 C132.89100646972656,-61.43299865722656 132.66900634765625,-60.77799987792969 132.4510040283203,-60.12200164794922 C132.11700439453125,-59.32400131225586 131.8350067138672,-58.50199890136719 131.49899291992188,-57.70800018310547 C131.34500122070312,-57.310001373291016 131.1929931640625,-56.9119987487793 131.0500030517578,-56.512001037597656 C130.7100067138672,-55.72200012207031 130.43299865722656,-54.904998779296875 130.11000061035156,-54.108001708984375 C129.8730010986328,-53.44900131225586 129.64300537109375,-52.7869987487793 129.3769989013672,-52.137001037597656 C129.21400451660156,-51.750999450683594 129.06100463867188,-51.36199951171875 128.91299438476562,-50.9739990234375 C128.6439971923828,-50.33100128173828 128.4080047607422,-49.672000885009766 128.1719970703125,-49.01599884033203 C127.90599822998047,-48.369998931884766 127.68299865722656,-47.70500183105469 127.46199798583984,-47.03900146484375 C127.14800262451172,-46.36000061035156 126.88200378417969,-45.65800094604492 126.57099914550781,-44.97800064086914 C126.34200286865234,-44.31800079345703 126.125,-43.6510009765625 125.85900115966797,-43.00400161743164 C125.44100189208984,-41.79100036621094 124.98400115966797,-40.59199905395508 124.44300079345703,-39.428001403808594 C124.0479965209961,-38.25600051879883 123.59600067138672,-37.10300064086914 123.20600128173828,-35.92599868774414 C122.88700103759766,-35.255001068115234 122.625,-34.55799865722656 122.31600189208984,-33.8849983215332 C122.08499908447266,-33.21799850463867 121.86299896240234,-32.54499816894531 121.5999984741211,-31.891000747680664 C121.35700225830078,-31.239999771118164 121.12799835205078,-30.579999923706055 120.86900329589844,-29.93199920654297 C120.62699890136719,-29.2810001373291 120.39700317382812,-28.621000289916992 120.12799835205078,-27.975000381469727 C119.9729995727539,-27.590999603271484 119.82499694824219,-27.20599937438965 119.68299865722656,-26.81599998474121 C119.34400177001953,-26.011999130249023 119.05899810791016,-25.190000534057617 118.70700073242188,-24.392000198364258 C118.54299926757812,-23.886999130249023 118.39199829101562,-23.381000518798828 118.23699951171875,-22.874000549316406 C117.90699768066406,-22.20199966430664 117.63500213623047,-21.5 117.31999969482422,-20.82200050354004 C116.93800354003906,-19.64699935913086 116.47699737548828,-18.500999450683594 116.08200073242188,-17.32900047302246 C115.83799743652344,-16.79400062561035 115.61699676513672,-16.250999450683594 115.39800262451172,-15.704000473022461 C115.07599639892578,-14.907999992370605 114.80500030517578,-14.090999603271484 114.4749984741211,-13.291999816894531 C114.24299621582031,-12.638999938964844 114.0199966430664,-11.979999542236328 113.76799774169922,-11.331000328063965 C113.52999877929688,-10.791000366210938 113.302001953125,-10.246999740600586 113.05500030517578,-9.711999893188477 C112.89099884033203,-9.211000442504883 112.73200225830078,-8.70300006866455 112.57099914550781,-8.196999549865723 C112.22599792480469,-7.4079999923706055 111.947998046875,-6.591000080108643 111.61799621582031,-5.791999816894531 C111.19499969482422,-4.751999855041504 110.77200317382812,-3.7119998931884766 110.4280014038086,-2.6389999389648438 C110.09200286865234,-1.8480000495910645 109.81400299072266,-1.0329999923706055 109.48100280761719,-0.23800000548362732 C109.32499694824219,0.14800000190734863 109.1760025024414,0.5410000085830688 109.02899932861328,0.9340000152587891 C108.75399780273438,1.5779999494552612 108.52300262451172,2.242000102996826 108.29000091552734,2.9019999504089355 C107.60900115966797,4.765999794006348 106.8030014038086,6.576000213623047 106.16799926757812,8.456000328063965 C105.68699645996094,9.64900016784668 105.25,10.857000350952148 104.77200317382812,12.052000045776367 C104.43399810791016,12.842000007629395 104.15899658203125,13.65999984741211 103.83499908447266,14.461000442504883 C103.59600067138672,15.114999771118164 103.37000274658203,15.77400016784668 103.10399627685547,16.42099952697754 C102.94300079345703,16.80299949645996 102.79000091552734,17.190000534057617 102.64199829101562,17.577999114990234 C102.37200164794922,18.22800064086914 102.14199829101562,18.888999938964844 101.91100311279297,19.55699920654297 C101.6709976196289,20.089000701904297 101.44599914550781,20.631000518798828 101.22599792480469,21.173999786376953 C100.96299743652344,21.81999969482422 100.73999786376953,22.481000900268555 100.51399993896484,23.14299964904785 C100.18099975585938,23.937999725341797 99.90299987792969,24.753000259399414 99.56900024414062,25.552000045776367 C99.41400146484375,25.93899917602539 99.26499938964844,26.33099937438965 99.11799621582031,26.724000930786133 C98.84700012207031,27.364999771118164 98.60900115966797,28.02400016784668 98.37000274658203,28.68000030517578 C98.10700225830078,29.329999923706055 97.88400268554688,29.9950008392334 97.66300201416016,30.660999298095703 C97.3499984741211,31.340999603271484 97.08100128173828,32.03900146484375 96.77200317382812,32.722999572753906 C96.54199981689453,33.387001037597656 96.3219985961914,34.051998138427734 96.05999755859375,34.702999114990234 C95.8219985961914,35.347999572753906 95.59700012207031,36.00199890136719 95.34600067138672,36.64500045776367 C95.11000061035156,37.1879997253418 94.88899993896484,37.73400115966797 94.64700317382812,38.2760009765625 C94.41799926757812,38.933998107910156 94.2020034790039,39.59299850463867 93.94999694824219,40.242000579833984 C93.71299743652344,40.77799987792969 93.48500061035156,41.31999969482422 93.23400115966797,41.854000091552734 C93.06999969482422,42.358001708984375 92.91100311279297,42.87099838256836 92.74800109863281,43.382999420166016 C92.4020004272461,44.172000885009766 92.11799621582031,44.986000061035156 91.78500366210938,45.78099822998047 C91.63300323486328,46.16899871826172 91.48200225830078,46.564998626708984 91.33599853515625,46.959999084472656 C91.05999755859375,47.60499954223633 90.83300018310547,48.26900100708008 90.5999984741211,48.928001403808594 C90.00299835205078,50.25 89.53600311279297,51.62699890136719 88.98200225830078,52.96500015258789 C88.81400299072266,53.46900177001953 88.6520004272461,53.97999954223633 88.49299621582031,54.492000579833984 C88.23999786376953,55.01900100708008 88.01000213623047,55.55799865722656 87.78199768066406,56.0989990234375 C87.5270004272461,56.7400016784668 87.30599975585938,57.395999908447266 87.08699798583984,58.05500030517578 C86.84600067138672,58.59400177001953 86.62000274658203,59.138999938964844 86.39800262451172,59.68899917602539 C85.81900024414062,61.13399887084961 85.34500122070312,62.62300109863281 84.73999786376953,64.05999755859375 C84.58100128173828,64.44599914550781 84.43099975585938,64.84200286865234 84.27999877929688,65.23699951171875 C84.00900268554688,65.87899780273438 83.78199768066406,66.53900146484375 83.55599975585938,67.2030029296875 C83.02300262451172,68.37300109863281 82.5530014038086,69.56999969482422 82.14800262451172,70.78900146484375 C81.87699890136719,71.4280014038086 81.6510009765625,72.08599853515625 81.4280014038086,72.74700164794922 C81.18399810791016,73.28500366210938 80.95800018310547,73.83100128173828 80.73200225830078,74.37999725341797 C80.4749984741211,75.02400207519531 80.25299835205078,75.68000030517578 80.02999877929688,76.33799743652344 C79.79000091552734,76.87300109863281 79.56800079345703,77.41600036621094 79.35199737548828,77.95999908447266 C79.0270004272461,78.76000213623047 78.7490005493164,79.5780029296875 78.41600036621094,80.3759994506836 C78.26399993896484,80.76499938964844 78.11399841308594,81.15599822998047 77.97100067138672,81.5530014038086 C77.63099670410156,82.34300231933594 77.35700225830078,83.15699768066406 77.03700256347656,83.95800018310547 C76.81300354003906,84.49600219726562 76.5989990234375,85.04299926757812 76.36399841308594,85.58300018310547 C76.125,86.23799896240234 75.9010009765625,86.90299987792969 75.63200378417969,87.5530014038086 C75.4739990234375,87.93599700927734 75.322998046875,88.3280029296875 75.177001953125,88.7239990234375 C74.83799743652344,89.51399993896484 74.55999755859375,90.33399963378906 74.22599792480469,91.13200378417969 C73.75599670410156,92.32499694824219 73.31800079345703,93.53399658203125 72.8280029296875,94.7229995727539 C72.6719970703125,95.11000061035156 72.5260009765625,95.5009994506836 72.38200378417969,95.9010009765625 C72.04299926757812,96.69100189208984 71.76799774169922,97.50900268554688 71.44400024414062,98.31300354003906 C71.22100067138672,98.85199737548828 71.00599670410156,99.39900207519531 70.77400207519531,99.94000244140625 C70.53600311279297,100.59200286865234 70.30699920654297,101.2509994506836 70.02999877929688,101.89600372314453 C69.85900115966797,102.39800262451172 69.70099639892578,102.90899658203125 69.54199981689453,103.4219970703125 C69.21600341796875,104.09200286865234 68.94999694824219,104.79000091552734 68.64600372314453,105.47100067138672 C68.4219970703125,106.01399993896484 68.20700073242188,106.56099700927734 67.96299743652344,107.09600067138672 C67.79399871826172,107.60399627685547 67.63899993896484,108.11599731445312 67.47799682617188,108.63300323486328 C67.1520004272461,109.3030014038086 66.88800048828125,110.00299835205078 66.5790023803711,110.68699645996094 C66.36299896240234,111.2239990234375 66.15899658203125,111.76899719238281 65.9260025024414,112.302001953125 C65.71199798583984,112.84300231933594 65.50399780273438,113.39299774169922 65.29199981689453,113.94000244140625 C64.6780014038086,115.8239974975586 62.79199981689453,116.66899871826172 61.12699890136719,117.40799713134766 C60.96200180053711,117.4260025024414 60.638999938964844,117.46499633789062 60.47700119018555,117.48200225830078 C58.12699890136719,117.72100067138672 56.112998962402344,116.43900299072266 54.17599868774414,115.322998046875 C53.8650016784668,115.08000183105469 53.55500030517578,114.83799743652344 53.249000549316406,114.60399627685547 C52.715999603271484,114.33499908447266 52.18600082397461,114.06199645996094 51.65700149536133,113.80500030517578 C51.34400177001953,113.54000091552734 51.0369987487793,113.2760009765625 50.729000091552734,113.02100372314453 C50.573001861572266,112.97599792480469 50.26100158691406,112.88500213623047 50.108001708984375,112.84100341796875 C49.797000885009766,112.56400299072266 49.48899841308594,112.28900146484375 49.185001373291016,112.01599884033203 C49.025001525878906,111.96700286865234 48.709999084472656,111.8759994506836 48.55099868774414,111.8270034790039 C48.03499984741211,111.39800262451172 47.516998291015625,110.9749984741211 47.00299835205078,110.54900360107422 C46.84700012207031,110.50399780273438 46.53499984741211,110.41100311279297 46.380001068115234,110.36299896240234 C46.06800079345703,110.08599853515625 45.76100158691406,109.80999755859375 45.452999114990234,109.53600311279297 C45.29600143432617,109.49500274658203 44.979000091552734,109.40799713134766 44.81999969482422,109.36299896240234 C44.5099983215332,109.08200073242188 44.19900131225586,108.80500030517578 43.89099884033203,108.53099822998047 C43.73400115966797,108.48699951171875 43.417999267578125,108.4000015258789 43.26100158691406,108.35900115966797 C42.95100021362305,108.0780029296875 42.643001556396484,107.8010025024414 42.334999084472656,107.5270004272461 C42.178001403808594,107.48600006103516 41.861000061035156,107.4010009765625 41.70500183105469,107.35700225830078 C41.39099884033203,107.0790023803711 41.08300018310547,106.8010025024414 40.77799987792969,106.5270004272461 C40.619998931884766,106.4800033569336 40.30500030517578,106.38800048828125 40.14799880981445,106.33999633789062 C39.632999420166016,105.91000366210938 39.11399841308594,105.48899841308594 38.599998474121094,105.06600189208984 C38.444000244140625,105.01599884033203 38.1349983215332,104.91300201416016 37.97999954223633,104.86199951171875 C37.4630012512207,104.43599700927734 36.941001892089844,104.01399993896484 36.428001403808594,103.59100341796875 C36.27199935913086,103.54000091552734 35.96799850463867,103.44499969482422 35.816001892089844,103.39600372314453 C35.292999267578125,102.96399688720703 34.768001556396484,102.53900146484375 34.25199890136719,102.11199951171875 C34.099998474121094,102.06500244140625 33.79600143432617,101.96900177001953 33.643001556396484,101.9219970703125 C33.124000549316406,101.49099731445312 32.599998474121094,101.06600189208984 32.08599853515625,100.64099884033203 C31.93000030517578,100.59700012207031 31.621000289916992,100.50399780273438 31.465999603271484,100.45600128173828 C31.15399932861328,100.17900085449219 30.847000122070312,99.90599822998047 30.538000106811523,99.63200378417969 C30.382999420166016,99.58499908447266 30.06999969482422,99.49199676513672 29.913999557495117,99.447998046875 C29.398000717163086,99.01899719238281 28.881000518798828,98.59600067138672 28.368999481201172,98.17400360107422 C28.211000442504883,98.12200164794922 27.89699935913086,98.01799774169922 27.743000030517578,97.96700286865234 C27.22599983215332,97.54000091552734 26.704999923706055,97.11799621582031 26.190000534057617,96.69499969482422 C26.038000106811523,96.64900207519531 25.731000900268555,96.55000305175781 25.57900047302246,96.5 C25.059999465942383,96.06900024414062 24.53499984741211,95.6449966430664 24.01799964904785,95.21900177001953 C23.86199951171875,95.17400360107422 23.551000595092773,95.0780029296875 23.393999099731445,95.03399658203125 C23.086999893188477,94.75700378417969 22.777999877929688,94.48300170898438 22.474000930786133,94.20999908447266 C22.316999435424805,94.16600036621094 22.006999969482422,94.06999969482422 21.85099983215332,94.0260009765625 C21.329999923706055,93.59600067138672 20.809999465942383,93.1709976196289 20.29599952697754,92.74500274658203 C20.139999389648438,92.6969985961914 19.829999923706055,92.59600067138672 19.676000595092773,92.54399871826172 C19.155000686645508,92.11699676513672 18.636999130249023,91.69499969482422 18.12299919128418,91.2699966430664 C17.966999053955078,91.2249984741211 17.655000686645508,91.13300323486328 17.5,91.08499908447266 C17.187999725341797,90.80799865722656 16.881000518798828,90.53399658203125 16.57200050354004,90.26000213623047 C16.41699981689453,90.21199798583984 16.104999542236328,90.12000274658203 15.949000358581543,90.07599639892578 C15.432999610900879,89.64700317382812 14.91100025177002,89.2229995727539 14.397000312805176,88.7969970703125 C14.241999626159668,88.7490005493164 13.927000045776367,88.65499877929688 13.770999908447266,88.60700225830078 C13.460000038146973,88.33000183105469 13.152000427246094,88.05699920654297 12.847999572753906,87.78399658203125 C12.687000274658203,87.73899841308594 12.373000144958496,87.64299774169922 12.218000411987305,87.59600067138672 C11.697999954223633,87.16500091552734 11.180000305175781,86.74099731445312 10.663000106811523,86.31500244140625 C10.510000228881836,86.27200317382812 10.197999954223633,86.18000030517578 10.043000221252441,86.13200378417969 C9.730999946594238,85.8550033569336 9.423999786376953,85.58000183105469 9.114999771118164,85.30699920654297 C8.960000038146973,85.25900268554688 8.64799976348877,85.16699981689453 8.491999626159668,85.12200164794922 C7.9730000495910645,84.68900299072266 7.451000213623047,84.26499938964844 6.936999797821045,83.83899688720703 C6.7779998779296875,83.79399871826172 6.464000225067139,83.6969985961914 6.304999828338623,83.64800262451172 C5.997000217437744,83.37200164794922 5.691999912261963,83.0999984741211 5.388000011444092,82.82599639892578 C5.230000019073486,82.78500366210938 4.914000034332275,82.697998046875 4.757999897003174,82.65399932861328 C4.443999767303467,82.37200164794922 4.132999897003174,82.09600067138672 3.825000047683716,81.8219985961914 C3.6689999103546143,81.7770004272461 3.3519999980926514,81.69100189208984 3.194999933242798,81.6500015258789 C2.884999990463257,81.37000274658203 2.578000068664551,81.09200286865234 2.2720000743865967,80.81800079345703 C2.115999937057495,80.7770004272461 1.7960000038146973,80.69200134277344 1.6399999856948853,80.64800262451172 C1.3259999752044678,80.36599731445312 1.0180000066757202,80.09200286865234 0.7110000252723694,79.81500244140625 C0.5509999990463257,79.77100372314453 0.23000000417232513,79.68299865722656 0.07100000232458115,79.63800048828125 C-0.23899999260902405,79.35600280761719 -0.5440000295639038,79.08399963378906 -0.8489999771118164,78.81199645996094 C-1.0089999437332153,78.7699966430664 -1.3250000476837158,78.68399810791016 -1.4819999933242798,78.64299774169922 C-1.805999994277954,78.34200286865234 -2.128000020980835,78.0510025024414 -2.447000026702881,77.75800323486328 C-5.534999847412109,80.0979995727539 -8.293000221252441,82.83599853515625 -11.244000434875488,85.33899688720703 C-16.913999557495117,90.55699920654297 -22.729999542236328,95.60600280761719 -28.41900062561035,100.8010025024414 C-36.64699935913086,108.0479965209961 -44.72700119018555,115.45999908447266 -53.08000183105469,122.55999755859375 C-54.00600051879883,123.3759994506836 -55.29199981689453,123.45500183105469 -56.45800018310547,123.60700225830078 C-57.48899841308594,123.58999633789062 -58.507999420166016,123.40399932861328 -59.49599838256836,123.125 C-59.948001861572266,122.88999938964844 -60.4109992980957,122.68800354003906 -60.869998931884766,122.48999786376953 C-61.38999938964844,122.04199981689453 -61.9379997253418,121.60800170898438 -62.34199905395508,121.0530014038086 C-62.770999908447266,120.08300018310547 -62.9640007019043,119.03500366210938 -63.27399826049805,118.03099822998047 C-63.26499938964844,117.87200164794922 -63.249000549316406,117.5530014038086 -63.242000579833984,117.39299774169922 C-63.367000579833984,117.00700378417969 -63.48899841308594,116.625 -63.612998962402344,116.2509994506836 C-63.6609992980957,115.64800262451172 -63.7140007019043,115.0530014038086 -63.76100158691406,114.46099853515625 C-63.87300109863281,114.08200073242188 -63.986000061035156,113.70899963378906 -64.09700012207031,113.33699798583984 C-64.14700317382812,112.74500274658203 -64.20500183105469,112.15799713134766 -64.25299835205078,111.5739974975586 C-64.36100006103516,111.19100189208984 -64.47000122070312,110.81300354003906 -64.57599639892578,110.43499755859375 C-64.73899841308594,108.76200103759766 -65.01300048828125,107.10299682617188 -65.18000030517578,105.43000030517578 C-65.28500366210938,105.0479965209961 -65.38700103759766,104.66899871826172 -65.48899841308594,104.29199981689453 C-65.68699645996094,102.25800323486328 -66.02999877929688,100.24500274658203 -66.23200225830078,98.21399688720703 C-66.33999633789062,97.8280029296875 -66.44100189208984,97.44599914550781 -66.54299926757812,97.06500244140625 C-67.30000305175781,90.71800231933594 -68.2300033569336,84.38700103759766 -68.98400115966797,78.03900146484375 C-69.09100341796875,77.65299987792969 -69.19200134277344,77.2699966430664 -69.29399871826172,76.88800048828125 C-71.20600128173828,62.16899871826172 -73.06900024414062,47.43000030517578 -75.10399627685547,32.731998443603516 C-79.43299865722656,30.131999969482422 -83.91100311279297,27.759000778198242 -88.29100036621094,25.239999771118164 C-101.572998046875,17.76799964904785 -114.8270034790039,10.243000030517578 -128.13099670410156,2.812999963760376 C-128.44200134277344,2.572999954223633 -128.75399780273438,2.3340001106262207 -129.0659942626953,2.0980000495910645 C-132.13499450683594,0.43700000643730164 -135.1510009765625,-1.3209999799728394 -138.19900512695312,-3.0199999809265137 C-139.9010009765625,-4.210000038146973 -141.76499938964844,-5.14300012588501 -143.5760040283203,-6.150000095367432 C-143.5760040283203,-6.150000095367432 -144.51199340820312,-6.85699987411499 -144.51199340820312,-6.85699987411499 C-145.67799377441406,-7.480000019073486 -146.822998046875,-8.144000053405762 -147.99200439453125,-8.753000259399414 C-148.30299377441406,-9.010000228881836 -148.61500549316406,-9.265999794006348 -148.92300415039062,-9.517999649047852 C-149.0800018310547,-9.562000274658203 -149.39500427246094,-9.656000137329102 -149.55099487304688,-9.701000213623047 C-149.86099243164062,-9.984999656677246 -150.16799926757812,-10.265999794006348 -150.47500610351562,-10.545999526977539 C-150.65199279785156,-10.574000358581543 -151.0019989013672,-10.630000114440918 -151.17799377441406,-10.66100025177002 C-152.0260009765625,-11.463000297546387 -152.43699645996094,-12.562999725341797 -152.80999755859375,-13.638999938964844 C-152.8040008544922,-13.795999526977539 -152.79299926757812,-14.109000205993652 -152.78700256347656,-14.265999794006348 C-153.31100463867188,-15.524999618530273 -152.9720001220703,-16.854999542236328 -152.6280059814453,-18.10700035095215 C-152.43600463867188,-18.44499969482422 -152.25100708007812,-18.78499984741211 -152.0679931640625,-19.128000259399414 C-151.531005859375,-19.781999588012695 -150.87899780273438,-20.339000701904297 -150.09300231933594,-20.66699981689453 C-144.66099548339844,-23.215999603271484 -138.96800231933594,-25.13599967956543 -133.343994140625,-27.20599937438965 C-127.67400360107422,-29.29800033569336 -121.9469985961914,-31.22800064086914 -116.26799774169922,-33.297000885009766 C-70.15899658203125,-49.45100021362305 -23.961000442504883,-65.35900115966797 22.190000534057617,-81.39199829101562 C60.07400131225586,-94.47200012207031 97.93699645996094,-107.61299896240234 135.87600708007812,-120.53900146484375 C138.79600524902344,-121.49099731445312 141.6649932861328,-122.61199951171875 144.65499877929688,-123.3479995727539 C145.01699829101562,-123.38300323486328 145.38499450683594,-123.41500091552734 145.75599670410156,-123.4520034790039 C146.28900146484375,-123.50299835205078 146.82200622558594,-123.55799865722656 147.36399841308594,-123.60700225830078z M69.58100128173828,-55.994998931884766 C26.176000595092773,-26.704999923706055 -17.202999114990234,2.627000093460083 -60.62799835205078,31.89299964904785 C-60.513999938964844,32.391998291015625 -60.433998107910156,32.900001525878906 -60.34299850463867,33.409000396728516 C-60.29899978637695,33.775001525878906 -60.24300003051758,34.14099884033203 -60.185001373291016,34.5099983215332 C-60.18199920654297,34.67499923706055 -60.176998138427734,35.0099983215332 -60.176998138427734,35.17399978637695 C-60.073001861572266,35.667999267578125 -59.9900016784668,36.165000915527344 -59.882999420166016,36.66299819946289 C-59.88399887084961,36.83100128173828 -59.893001556396484,37.165000915527344 -59.89799880981445,37.33300018310547 C-59.792999267578125,37.823001861572266 -59.71099853515625,38.32400131225586 -59.604000091552734,38.821998596191406 C-59.60100173950195,38.98699951171875 -59.5989990234375,39.319000244140625 -59.599998474121094,39.487998962402344 C-59.534000396728516,39.85200119018555 -59.4739990234375,40.21500015258789 -59.41299819946289,40.584999084472656 C-59.36600112915039,40.939998626708984 -59.31999969482422,41.30099868774414 -59.275001525878906,41.66699981689453 C-59.231998443603516,42.02299880981445 -59.189998626708984,42.38100051879883 -59.154998779296875,42.744998931884766 C-59.06700134277344,43.23500061035156 -58.999000549316406,43.73099899291992 -58.9010009765625,44.222999572753906 C-58.89899826049805,44.391998291015625 -58.895999908447266,44.72100067138672 -58.89699935913086,44.888999938964844 C-58.801998138427734,45.37699890136719 -58.733001708984375,45.87099838256836 -58.6510009765625,46.367000579833984 C-58.60200119018555,46.73099899291992 -58.54999923706055,47.09600067138672 -58.487998962402344,47.465999603271484 C-58.481998443603516,47.63199996948242 -58.46900177001953,47.96099853515625 -58.46099853515625,48.124000549316406 C-58.39899826049805,48.486000061035156 -58.3390007019043,48.847999572753906 -58.28099822998047,49.21699905395508 C-58.23400115966797,49.573001861572266 -58.19200134277344,49.9370002746582 -58.150001525878906,50.29899978637695 C-58.10100173950195,50.65599822998047 -58.05099868774414,51.016998291015625 -58.00899887084961,51.37900161743164 C-57.95600128173828,51.736000061035156 -57.90599822998047,52.09600067138672 -57.86399841308594,52.45800018310547 C-57.814998626708984,52.814998626708984 -57.768001556396484,53.17499923706055 -57.72700119018555,53.540000915527344 C-57.67300033569336,53.89500045776367 -57.624000549316406,54.255001068115234 -57.577999114990234,54.61800003051758 C-57.53499984741211,54.9739990234375 -57.49300003051758,55.33700180053711 -57.45899963378906,55.70100021362305 C-57.37099838256836,56.191001892089844 -57.301998138427734,56.685001373291016 -57.20500183105469,57.176998138427734 C-57.20199966430664,57.34299850463867 -57.19200134277344,57.67499923706055 -57.189998626708984,57.840999603271484 C-57.130001068115234,58.202999114990234 -57.07400131225586,58.56700134277344 -57.027000427246094,58.93899917602539 C-56.94599914550781,59.428001403808594 -56.87799835205078,59.92399978637695 -56.784000396728516,60.415000915527344 C-56.777000427246094,60.58100128173828 -56.77199935913086,60.91600036621094 -56.76900100708008,61.08100128173828 C-56.70600128173828,61.439998626708984 -56.64400100708008,61.80799865722656 -56.58100128173828,62.17399978637695 C-56.54199981689453,62.53200149536133 -56.50299835205078,62.89400100708008 -56.46900177001953,63.257999420166016 C-56.3849983215332,63.74800109863281 -56.3129997253418,64.24199676513672 -56.21500015258789,64.73400115966797 C-56.21200180053711,64.9000015258789 -56.20600128173828,65.23200225830078 -56.202999114990234,65.39800262451172 C-56.13999938964844,65.76000213623047 -56.077999114990234,66.12699890136719 -56.01900100708008,66.49199676513672 C-55.972999572753906,66.85199737548828 -55.93000030517578,67.21099853515625 -55.888999938964844,67.572998046875 C-55.8380012512207,67.93000030517578 -55.79600143432617,68.28800201416016 -55.75400161743164,68.65399932861328 C-55.676998138427734,69.13899993896484 -55.62099838256836,69.62799835205078 -55.54100036621094,70.12000274658203 C-55.505001068115234,70.47899627685547 -55.4630012512207,70.84100341796875 -55.40999984741211,71.20099639892578 C-55.37099838256836,71.55999755859375 -55.32500076293945,71.91899871826172 -55.275001525878906,72.27899932861328 C-55.21699905395508,72.64600372314453 -55.15399932861328,73.01200103759766 -55.08599853515625,73.37899780273438 C-55.09000015258789,73.55000305175781 -55.099998474121094,73.88800048828125 -55.10499954223633,74.05500030517578 C-54.98500061035156,74.41799926757812 -54.86600112915039,74.78099822998047 -54.749000549316406,75.1510009765625 C-54.71200180053711,75.52300262451172 -54.66600036621094,75.9000015258789 -54.612998962402344,76.27899932861328 C-54.606998443603516,76.44499969482422 -54.60100173950195,76.7770004272461 -54.59400177001953,76.94300079345703 C-54.49399948120117,77.43699645996094 -54.40800094604492,77.93299865722656 -54.30400085449219,78.43000030517578 C-54.30500030517578,78.5979995727539 -54.30699920654297,78.93099975585938 -54.30799865722656,79.0989990234375 C-54.215999603271484,79.58699798583984 -54.14400100708008,80.08200073242188 -54.064998626708984,80.5780029296875 C-54.01300048828125,80.94499969482422 -53.95800018310547,81.30999755859375 -53.893001556396484,81.68000030517578 C-53.89799880981445,81.85099792480469 -53.9119987487793,82.19200134277344 -53.91699981689453,82.36299896240234 C-53.78099822998047,82.7300033569336 -53.641998291015625,83.0979995727539 -53.5,83.46900177001953 C-53.512001037597656,83.64199829101562 -53.5369987487793,83.98699951171875 -53.54899978637695,84.16100311279297 C-53.441001892089844,84.6510009765625 -53.35599899291992,85.1520004272461 -53.24599838256836,85.6500015258789 C-53.25,85.81800079345703 -53.25899887084961,86.15299987792969 -53.26300048828125,86.31999969482422 C-53.209999084472656,86.552001953125 -53.10100173950195,87.01899719238281 -53.04800033569336,87.25299835205078 C-53.04800033569336,87.25299835205078 -52.904998779296875,87.2760009765625 -52.904998779296875,87.2760009765625 C-52.76900100708008,87.08200073242188 -52.49300003051758,86.68900299072266 -52.356998443603516,86.49500274658203 C-52.25400161743164,86.17900085449219 -52.14799880981445,85.86699676513672 -52.03499984741211,85.55899810791016 C-51.66600036621094,84.91899871826172 -51.47700119018555,84.197998046875 -51.124000549316406,83.55500030517578 C-51.005001068115234,83.24800109863281 -50.88399887084961,82.9469985961914 -50.76300048828125,82.6510009765625 C-50.441001892089844,82.14900207519531 -50.28099822998047,81.5770034790039 -50.08700180053711,81.02899932861328 C-49.77299880981445,80.5250015258789 -49.61800003051758,79.947998046875 -49.42100143432617,79.4010009765625 C-49.07400131225586,78.7490005493164 -48.882999420166016,78.03700256347656 -48.53300094604492,77.39299774169922 C-48.340999603271484,76.83699798583984 -48.185001373291016,76.26399993896484 -47.867000579833984,75.76799774169922 C-47.68000030517578,75.21399688720703 -47.494998931884766,74.66200256347656 -47.233001708984375,74.14099884033203 C-47.02899932861328,73.70700073242188 -46.82699966430664,73.2760009765625 -46.595001220703125,72.86100006103516 C-46.40599822998047,72.302001953125 -46.26300048828125,71.72599792480469 -45.93199920654297,71.23200225830078 C-45.7400016784668,70.6729965209961 -45.5989990234375,70.09100341796875 -45.242000579833984,69.60900115966797 C-45.11199951171875,69.19300079345703 -44.986000061035156,68.77899932861328 -44.85100173950195,68.37000274658203 C-44.50699996948242,67.87899780273438 -44.358001708984375,67.29299926757812 -44.15999984741211,66.74199676513672 C-43.84199905395508,66.24299621582031 -43.69499969482422,65.66600036621094 -43.499000549316406,65.12200164794922 C-43.18000030517578,64.61900329589844 -43.027000427246094,64.04399871826172 -42.82899856567383,63.49300003051758 C-42.51100158691406,62.99399948120117 -42.361000061035156,62.41999816894531 -42.16400146484375,61.87200164794922 C-41.84199905395508,61.37300109863281 -41.698001861572266,60.79100036621094 -41.500999450683594,60.24300003051758 C-41.18299865722656,59.74399948120117 -41.02899932861328,59.167999267578125 -40.834999084472656,58.619998931884766 C-40.5099983215332,58.12200164794922 -40.362998962402344,57.54399871826172 -40.16899871826172,56.994998931884766 C-39.847999572753906,56.49599838256836 -39.696998596191406,55.917999267578125 -39.5,55.369998931884766 C-39.152000427246094,54.71900177001953 -38.97700119018555,53.99300003051758 -38.5880012512207,53.36600112915039 C-38.45800018310547,52.94599914550781 -38.327999114990234,52.52899932861328 -38.19200134277344,52.11800003051758 C-37.9370002746582,51.70800018310547 -37.74599838256836,51.263999938964844 -37.540000915527344,50.83300018310547 C-37.249000549316406,50.16699981689453 -36.994998931884766,49.4900016784668 -36.71099853515625,48.823001861572266 C-36.507999420166016,48.388999938964844 -36.29800033569336,47.957000732421875 -36.051998138427734,47.54199981689453 C-35.957000732421875,47.22800064086914 -35.854000091552734,46.91400146484375 -35.755001068115234,46.604000091552734 C-33.481998443603516,44.39899826049805 -31.23200035095215,42.180999755859375 -28.96299934387207,39.97700119018555 C-1.562999963760376,13.618000030517578 26.06800079345703,-12.513999938964844 53.63999938964844,-38.70199966430664 C61.542999267578125,-46.10900115966797 69.29000091552734,-53.68000030517578 77.21399688720703,-61.066001892089844 C74.6050033569336,-59.47700119018555 72.13099670410156,-57.67900085449219 69.58100128173828,-55.994998931884766z M-26.440000534057617,61.83599853515625 C-26.509000778198242,62.05099868774414 -26.643999099731445,62.4739990234375 -26.714000701904297,62.6879997253418 C-26.968000411987305,63.095001220703125 -27.167999267578125,63.52799987792969 -27.371999740600586,63.965999603271484 C-27.66900062561035,64.62999725341797 -27.886999130249023,65.33599853515625 -28.25200080871582,65.9739990234375 C-28.38800048828125,66.38300323486328 -28.517000198364258,66.7959976196289 -28.650999069213867,67.21499633789062 C-28.996999740600586,67.6989974975586 -29.142000198364258,68.28099822998047 -29.336999893188477,68.83599853515625 C-29.650999069213867,69.33599853515625 -29.81100082397461,69.90499877929688 -30.003000259399414,70.46099853515625 C-30.316999435424805,70.96099853515625 -30.476999282836914,71.52899932861328 -30.666000366210938,72.08899688720703 C-30.979999542236328,72.58599853515625 -31.14299964904785,73.15699768066406 -31.334999084472656,73.71299743652344 C-31.645999908447266,74.21099853515625 -31.808000564575195,74.77799987792969 -32.000999450683594,75.33799743652344 C-32.4900016784668,76.05000305175781 -32.46099853515625,76.98400115966797 -32.979000091552734,77.68399810791016 C-33.11399841308594,78.09300231933594 -33.24399948120117,78.50900268554688 -33.374000549316406,78.9260025024414 C-33.722999572753906,79.40899658203125 -33.86800003051758,79.99099731445312 -34.060001373291016,80.5469970703125 C-34.542999267578125,81.26399993896484 -34.54100036621094,82.1780014038086 -35.020999908447266,82.89600372314453 C-35.21799850463867,83.44200134277344 -35.36199951171875,84.0250015258789 -35.68600082397461,84.52100372314453 C-35.88399887084961,85.07099914550781 -36.02000045776367,85.66200256347656 -36.382999420166016,86.14299774169922 C-36.5369987487793,86.66400146484375 -36.67100143432617,87.19400024414062 -36.819000244140625,87.7239990234375 C-37.11800003051758,88.125 -37.31399917602539,88.57499694824219 -37.40800094604492,89.07599639892578 C-29.805999755859375,82.63099670410156 -22.440000534057617,75.91500091552734 -15.175000190734863,69.09600067138672 C-15.746000289916992,68.60299682617188 -16.32900047302246,68.13200378417969 -16.900999069213867,67.64800262451172 C-17.06999969482422,67.59500122070312 -17.402999877929688,67.48799896240234 -17.57200050354004,67.43499755859375 C-18.066999435424805,67.00599670410156 -18.57699966430664,66.59700012207031 -19.06999969482422,66.1719970703125 C-19.243000030517578,66.12100219726562 -19.582000732421875,66.02400207519531 -19.750999450683594,65.9739990234375 C-20.041000366210938,65.69999694824219 -20.32900047302246,65.43099975585938 -20.61400032043457,65.16100311279297 C-20.785999298095703,65.11000061035156 -21.125,65.01300048828125 -21.29400062561035,64.96299743652344 C-21.792999267578125,64.53299713134766 -22.30299949645996,64.125 -22.79599952697754,63.70000076293945 C-22.964000701904297,63.64699935913086 -23.305999755859375,63.54399871826172 -23.475000381469727,63.49300003051758 C-23.767000198364258,63.222999572753906 -24.055999755859375,62.96099853515625 -24.344999313354492,62.698001861572266 C-24.500999450683594,62.632999420166016 -24.81599998474121,62.507999420166016 -24.97599983215332,62.441001892089844 C-25.41699981689453,62.13199996948242 -25.937000274658203,61.99300003051758 -26.440000534057617,61.83599853515625z"></path></g></g><g style="display: none;" transform="matrix(0.20000000298023224,0,0,0.20000000298023224,200,200)" opacity="1"><g opacity="1" transform="matrix(1,0,0,1,250,250)"><path fill="rgb(23,90,187)" fill-opacity="1" d=" M0,-250 C138.0709991455078,-250 250,-138.0709991455078 250,0 C250,138.0709991455078 138.0709991455078,250 0,250 C-138.0709991455078,250 -250,138.0709991455078 -250,0 C-250,-138.0709991455078 -138.0709991455078,-250 0,-250z"></path></g><g opacity="1" transform="matrix(1,0,0,1,250,249.99899291992188)"><path fill="rgb(255,255,255)" fill-opacity="1" d=" M84.28600311279297,-49.029998779296875 C84.28600311279297,-49.029998779296875 70.23500061035156,-49.029998779296875 70.23500061035156,-49.029998779296875 C70.23500061035156,-49.029998779296875 70.23500061035156,-80.3949966430664 70.23500061035156,-80.3949966430664 C70.23500061035156,-118.93299865722656 38.52399826049805,-150.64300537109375 -0.014000000432133675,-150.64300537109375 C-38.55099868774414,-150.64300537109375 -70.26200103759766,-118.93299865722656 -70.26200103759766,-80.3949966430664 C-70.26200103759766,-80.3949966430664 -70.26200103759766,-49.0369987487793 -70.26200103759766,-49.0369987487793 C-70.26200103759766,-49.0369987487793 -84.31300354003906,-49.0369987487793 -84.31300354003906,-49.0369987487793 C-99.01899719238281,-48.965999603271484 -111.08499908447266,-36.861000061035156 -111.11100006103516,-22.155000686645508 C-111.11100006103516,-22.155000686645508 -111.11100006103516,123.76200103759766 -111.11100006103516,123.76200103759766 C-111.08499908447266,138.4739990234375 -98.9990005493164,150.5850067138672 -84.28600311279297,150.64300537109375 C-84.28600311279297,150.64300537109375 84.28600311279297,150.64300537109375 84.28600311279297,150.64300537109375 C98.99800109863281,150.5850067138672 111.08399963378906,138.4739990234375 111.11100006103516,123.76200103759766 C111.11100006103516,123.76200103759766 111.11100006103516,-22.155000686645508 111.11100006103516,-22.155000686645508 C111.0790023803711,-36.867000579833984 98.99800109863281,-48.97200012207031 84.28600311279297,-49.029998779296875z M-43.4379997253418,-80.3949966430664 C-43.4379997253418,-104.22000122070312 -23.832000732421875,-123.82599639892578 -0.007000000216066837,-123.82599639892578 C23.81100082397461,-123.82599639892578 43.41699981689453,-104.22000122070312 43.41699981689453,-80.3949966430664 C43.41699981689453,-80.3949966430664 43.41699981689453,-49.0369987487793 43.41699981689453,-49.0369987487793 C43.41699981689453,-49.0369987487793 -43.4379997253418,-49.0369987487793 -43.4379997253418,-49.0369987487793 C-43.4379997253418,-49.0369987487793 -43.4379997253418,-80.3949966430664 -43.4379997253418,-80.3949966430664z"></path></g><g opacity="1" transform="matrix(1,0,0,1,249.98699951171875,302.9330139160156)"><path fill="rgb(23,90,187)" fill-opacity="1" d=" M29.3799991607666,-13.413999557495117 C29.374000549316406,-29.525999069213867 16.11199951171875,-42.78900146484375 0,-42.78900146484375 C-16.118999481201172,-42.78900146484375 -29.3799991607666,-29.527000427246094 -29.3799991607666,-13.409000396728516 C-29.3799991607666,-2.1510000228881836 -22.913000106811523,8.154999732971191 -12.77299976348877,13.048999786376953 C-12.77299976348877,13.048999786376953 -12.77299976348877,42.78900146484375 -12.77299976348877,42.78900146484375 C-12.77299976348877,42.78900146484375 12.77299976348877,42.78900146484375 12.77299976348877,42.78900146484375 C12.77299976348877,42.78900146484375 12.77299976348877,13.048999786376953 12.77299976348877,13.048999786376953 C22.913000106811523,8.154999732971191 29.3799991607666,-2.1570000648498535 29.3799991607666,-13.413999557495117z"></path></g></g><g style="display: block;" transform="matrix(0.20000000298023224,0,0,0.20000000298023224,210.00030517578125,196.2435760498047)" opacity="0.05076289307726963"><g opacity="1" transform="matrix(1,0,0,1,250,250)"><path fill="rgb(36,85,174)" fill-opacity="1" d=" M0,-250 C138.0709991455078,-250 250,-138.0709991455078 250,0 C250,138.0709991455078 138.0709991455078,250 0,250 C-138.0709991455078,250 -250,138.0709991455078 -250,0 C-250,-138.0709991455078 -138.0709991455078,-250 0,-250z"></path></g><g opacity="1" transform="matrix(1,0,0,1,249.9980010986328,241.04400634765625)"><path fill="rgb(188,193,197)" fill-opacity="1" d=" M-122.23799896240234,-52.16299819946289 C-122.23799896240234,-52.16299819946289 -19.274999618530273,42.22100067138672 -19.274999618530273,42.22100067138672 C-8.425999641418457,52.16299819946289 8.42199993133545,52.16299819946289 19.270000457763672,42.22100067138672 C19.270000457763672,42.22100067138672 122.23699951171875,-52.16299819946289 122.23699951171875,-52.16299819946289 C122.23699951171875,-52.16299819946289 -122.23799896240234,-52.16299819946289 -122.23799896240234,-52.16299819946289z"></path></g><g opacity="1" transform="matrix(1,0,0,1,249.9980010986328,280.55999755859375)"><path fill="rgb(248,250,255)" fill-opacity="1" d=" M19.274999618530273,2.7060000896453857 C8.425999641418457,12.647000312805176 -8.42199993133545,12.647000312805176 -19.270000457763672,2.7060000896453857 C-19.270000457763672,2.7060000896453857 -122.23699951171875,-91.6780014038086 -122.23699951171875,-91.6780014038086 C-122.23699951171875,-91.6780014038086 -122.23699951171875,91.6780014038086 -122.23699951171875,91.6780014038086 C-122.23699951171875,91.6780014038086 122.23699951171875,91.6780014038086 122.23699951171875,91.6780014038086 C122.23699951171875,91.6780014038086 122.23699951171875,-91.6780014038086 122.23699951171875,-91.6780014038086 C122.23699951171875,-91.6780014038086 19.274999618530273,2.7060000896453857 19.274999618530273,2.7060000896453857z"></path></g><g opacity="1" transform="matrix(1,0,0,1,249.9980010986328,326.39898681640625)"><path fill="rgb(188,193,197)" fill-opacity="1" d=" M19.274999618530273,-43.132999420166016 C8.425999641418457,-33.1879997253418 -8.425999641418457,-33.1879997253418 -19.274999618530273,-43.132999420166016 C-19.274999618530273,-43.132999420166016 -22.225000381469727,-45.8390007019043 -22.225000381469727,-45.8390007019043 C-22.225000381469727,-45.8390007019043 -122.23699951171875,45.8390007019043 -122.23699951171875,45.8390007019043 C-122.23699951171875,45.8390007019043 122.23699951171875,45.8390007019043 122.23699951171875,45.8390007019043 C122.23699951171875,45.8390007019043 22.225000381469727,-45.8390007019043 22.225000381469727,-45.8390007019043 C22.225000381469727,-45.8390007019043 19.274999618530273,-43.132999420166016 19.274999618530273,-43.132999420166016z"></path></g><g opacity="1" transform="matrix(1,0,0,1,249.9969940185547,210.4810028076172)"><path fill="rgb(128,164,221)" fill-opacity="1" d=" M82.9469985961914,-82.71800231933594 C82.9469985961914,-82.71800231933594 -82.9469985961914,-82.71800231933594 -82.9469985961914,-82.71800231933594 C-87.73500061035156,-82.71800231933594 -91.6780014038086,-78.7760009765625 -91.6780014038086,-73.98699951171875 C-91.6780014038086,-73.98699951171875 -91.6780014038086,6.414999961853027 -91.6780014038086,6.414999961853027 C-91.6780014038086,6.414999961853027 -19.27400016784668,72.77200317382812 -19.27400016784668,72.77200317382812 C-8.425000190734863,82.71800231933594 8.425999641418457,82.71800231933594 19.274999618530273,72.77200317382812 C19.274999618530273,72.77200317382812 91.6780014038086,6.414999961853027 91.6780014038086,6.414999961853027 C91.6780014038086,6.414999961853027 91.6780014038086,-73.98699951171875 91.6780014038086,-73.98699951171875 C91.6780014038086,-78.7760009765625 87.73600006103516,-82.71800231933594 82.9469985961914,-82.71800231933594z"></path></g><g opacity="1" transform="matrix(1,0,0,1,248.41299438476562,202.19500732421875)"><path fill="rgb(255,255,255)" fill-opacity="1" d=" M37.332000732421875,25.481000900268555 C37.332000732421875,25.481000900268555 47.9109992980957,25.481000900268555 47.9109992980957,25.481000900268555 C44.55400085449219,32.19499969482422 39.46699905395508,37.48400115966797 32.652000427246094,41.24800109863281 C24.81999969482422,45.62200164794922 15.258000373840332,47.75899887084961 3.9670000076293945,47.75899887084961 C-7.019000053405762,47.75899887084961 -16.479000091552734,45.928001403808594 -24.413000106811523,42.26499938964844 C-32.34700012207031,38.60300064086914 -38.24700164794922,33.11000061035156 -42.112998962402344,25.88800048828125 C-45.97800064086914,18.767000198364258 -47.9109992980957,10.833000183105469 -47.9109992980957,2.390000104904175 C-47.9109992980957,-6.866000175476074 -45.775001525878906,-15.614999771118164 -41.29899978637695,-23.548999786376953 C-36.92499923706055,-31.584999084472656 -30.92300033569336,-37.68899917602539 -23.29400062561035,-41.654998779296875 C-15.562999725341797,-45.724998474121094 -6.815000057220459,-47.75899887084961 2.9509999752044678,-47.75899887084961 C11.291000366210938,-47.75899887084961 18.716999053955078,-46.13199996948242 25.22800064086914,-42.875999450683594 C31.738000869750977,-39.62099838256836 36.72100067138672,-34.94200134277344 40.077999114990234,-29.04199981689453 C43.5369987487793,-23.041000366210938 45.266998291015625,-16.530000686645508 45.266998291015625,-9.40999984741211 C45.266998291015625,-0.9660000205039978 42.62300109863281,6.6620001792907715 37.433998107910156,13.477999687194824 C30.923999786376953,22.124000549316406 22.58099937438965,26.39699935913086 12.40999984741211,26.39699935913086 C9.663000106811523,26.39699935913086 7.5279998779296875,25.88800048828125 6.205999851226807,24.972000122070312 C4.7820000648498535,23.954999923706055 3.865999937057495,22.632999420166016 3.3570001125335693,20.700000762939453 C-0.5080000162124634,24.464000701904297 -5.086999893188477,26.39699935913086 -10.17300033569336,26.39699935913086 C-15.666000366210938,26.39699935913086 -20.242000579833984,24.464000701904297 -23.80299949645996,20.700000762939453 C-27.46500015258789,16.93600082397461 -29.29599952697754,11.850000381469727 -29.29599952697754,5.544000148773193 C-29.29599952697754,-2.187000036239624 -27.058000564575195,-9.307999610900879 -22.68400001525879,-15.715999603271484 C-17.393999099731445,-23.548999786376953 -10.579000473022461,-27.415000915527344 -2.3389999866485596,-27.415000915527344 C3.561000108718872,-27.415000915527344 7.934999942779541,-25.176000595092773 10.680999755859375,-20.701000213623047 C10.680999755859375,-20.701000213623047 12.003000259399414,-26.194000244140625 12.003000259399414,-26.194000244140625 C12.003000259399414,-26.194000244140625 25.125,-26.194000244140625 25.125,-26.194000244140625 C25.125,-26.194000244140625 17.597999572753906,9.409000396728516 17.597999572753906,9.409000396728516 C17.089000701904297,11.647000312805176 16.885000228881836,13.071000099182129 16.885000228881836,13.782999992370605 C16.885000228881836,14.597000122070312 17.08799934387207,15.206999778747559 17.496000289916992,15.61400032043457 C17.801000595092773,16.020999908447266 18.309999465942383,16.224000930786133 18.819000244140625,16.224000930786133 C20.44700050354004,16.224000930786133 22.479999542236328,15.309000015258789 25.023000717163086,13.37600040435791 C28.3799991607666,10.833000183105469 31.125999450683594,7.47599983215332 33.1609992980957,3.2039999961853027 C35.297000885009766,-0.9660000205039978 36.314998626708984,-5.340000152587891 36.314998626708984,-9.918000221252441 C36.314998626708984,-18.055999755859375 33.36600112915039,-24.871000289916992 27.46500015258789,-30.36400032043457 C21.56599998474121,-35.858001708984375 13.326000213623047,-38.604000091552734 2.746999979019165,-38.604000091552734 C-6.204999923706055,-38.604000091552734 -13.833999633789062,-36.77299880981445 -20.038999557495117,-33.111000061035156 C-26.243999481201172,-29.448999404907227 -31.024999618530273,-24.26099967956543 -34.178001403808594,-17.64900016784668 C-37.332000732421875,-11.036999702453613 -38.856998443603516,-4.119999885559082 -38.856998443603516,3.1019999980926514 C-38.856998443603516,10.121000289916992 -37.12799835205078,16.42799949645996 -33.56800079345703,22.124000549316406 C-30.108999252319336,27.92300033569336 -25.125,32.09299850463867 -18.716999053955078,34.737998962402344 C-12.40999984741211,37.382999420166016 -5.085999965667725,38.70500183105469 3.1540000438690186,38.70500183105469 C11.088000297546387,38.70500183105469 17.801000595092773,37.58599853515625 23.496999740600586,35.347999572753906 C29.194000244140625,33.11000061035156 33.77199935913086,29.854999542236328 37.332000732421875,25.481000900268555z M-16.37700080871582,5.034999847412109 C-16.37700080871582,9.204999923706055 -15.562999725341797,12.359000205993652 -13.833999633789062,14.291999816894531 C-12.104999542236328,16.326000213623047 -9.968000411987305,17.3439998626709 -7.5269999504089355,17.3439998626709 C-5.593999862670898,17.3439998626709 -3.865000009536743,16.834999084472656 -2.236999988555908,15.918999671936035 C-0.9150000214576721,15.206999778747559 0.3059999942779541,14.1899995803833 1.5260000228881836,12.765999794006348 C3.255000114440918,10.730999946594238 4.7820000648498535,7.7820000648498535 6.104000091552734,3.9159998893737793 C7.324999809265137,0.050999999046325684 8.03600025177002,-3.509999990463257 8.03600025177002,-6.866000175476074 C8.03600025177002,-10.630999565124512 7.120999813079834,-13.479000091552734 5.392000198364258,-15.512999534606934 C3.6630001068115234,-17.54800033569336 1.4240000247955322,-18.46299934387207 -1.2200000286102295,-18.46299934387207 C-4.067999839782715,-18.46299934387207 -6.7129998207092285,-17.44499969482422 -9.053000450134277,-15.208000183105469 C-11.494000434875488,-12.970000267028809 -13.324999809265137,-9.817000389099121 -14.545999526977539,-5.748000144958496 C-15.767000198364258,-1.6790000200271606 -16.37700080871582,1.8819999694824219 -16.37700080871582,5.034999847412109z"></path></g></g><g style="display: block;" transform="matrix(0.20000000298023224,0,0,0.20000000298023224,159.70208740234375,233.1865234375)" opacity="0.2633850008318171"><g opacity="1" transform="matrix(1,0,0,1,250,250)"><path fill="rgb(36,85,174)" fill-opacity="1" d=" M0,-250 C138.0709991455078,-250 250,-138.0709991455078 250,0 C250,138.0709991455078 138.0709991455078,250 0,250 C-138.0709991455078,250 -250,138.0709991455078 -250,0 C-250,-138.0709991455078 -138.0709991455078,-250 0,-250z"></path></g><g opacity="1" transform="matrix(1,0,0,1,249.99899291992188,249.99899291992188)"><path fill="rgb(174,202,232)" fill-opacity="1" d=" M97.79100036621094,-122.23799896240234 C97.79100036621094,-122.23799896240234 -97.78900146484375,-122.23799896240234 -97.78900146484375,-122.23799896240234 C-111.23500061035156,-122.23799896240234 -122.11499786376953,-111.23600006103516 -122.11499786376953,-97.79000091552734 C-122.11499786376953,-97.79000091552734 -122.23799896240234,122.23799896240234 -122.23799896240234,122.23799896240234 C-122.23799896240234,122.23799896240234 -73.34200286865234,73.34400177001953 -73.34200286865234,73.34400177001953 C-73.34200286865234,73.34400177001953 97.79100036621094,73.34400177001953 97.79100036621094,73.34400177001953 C111.23699951171875,73.34400177001953 122.23799896240234,62.340999603271484 122.23799896240234,48.895999908447266 C122.23799896240234,48.895999908447266 122.23799896240234,-97.79000091552734 122.23799896240234,-97.79000091552734 C122.23799896240234,-111.23600006103516 111.23699951171875,-122.23799896240234 97.79100036621094,-122.23799896240234z M-73.34200286865234,-36.66999816894531 C-73.34200286865234,-36.66999816894531 73.34400177001953,-36.66999816894531 73.34400177001953,-36.66999816894531 C73.34400177001953,-36.66999816894531 73.34400177001953,-12.222000122070312 73.34400177001953,-12.222000122070312 C73.34400177001953,-12.222000122070312 -73.34200286865234,-12.222000122070312 -73.34200286865234,-12.222000122070312 C-73.34200286865234,-12.222000122070312 -73.34200286865234,-36.66999816894531 -73.34200286865234,-36.66999816894531z M24.44700050354004,24.447999954223633 C24.44700050354004,24.447999954223633 -73.34300231933594,24.447999954223633 -73.34300231933594,24.447999954223633 C-73.34300231933594,24.447999954223633 -73.34300231933594,0.0010000000474974513 -73.34300231933594,0.0010000000474974513 C-73.34300231933594,0.0010000000474974513 24.44700050354004,0.0010000000474974513 24.44700050354004,0.0010000000474974513 C24.44700050354004,0.0010000000474974513 24.44700050354004,24.447999954223633 24.44700050354004,24.447999954223633z M73.34300231933594,-48.89400100708008 C73.34300231933594,-48.89400100708008 -73.34300231933594,-48.89400100708008 -73.34300231933594,-48.89400100708008 C-73.34300231933594,-48.89400100708008 -73.34300231933594,-73.34200286865234 -73.34300231933594,-73.34200286865234 C-73.34300231933594,-73.34200286865234 73.34300231933594,-73.34200286865234 73.34300231933594,-73.34200286865234 C73.34300231933594,-73.34200286865234 73.34300231933594,-48.89400100708008 73.34300231933594,-48.89400100708008z"></path></g></g><g style="display: block;" transform="matrix(0.20000000298023224,0,0,0.20000000298023224,92.44674682617188,158.97451782226562)" opacity="0.5543982496030863"><g opacity="1" transform="matrix(1,0,0,1,250,250)"><path fill="rgb(36,85,174)" fill-opacity="1" d=" M0,-250 C138.0709991455078,-250 250,-138.0709991455078 250,0 C250,138.0709991455078 138.0709991455078,250 0,250 C-138.0709991455078,250 -250,138.0709991455078 -250,0 C-250,-138.0709991455078 -138.0709991455078,-250 0,-250z"></path></g><g opacity="1" transform="matrix(1,0,0,1,250,249.99899291992188)"><path fill="rgb(174,202,232)" fill-opacity="1" d=" M-73.06999969482422,-16.43400001525879 C-53.512001037597656,22.003000259399414 -22.003000259399414,53.37799835205078 16.43400001525879,73.0719985961914 C16.43400001525879,73.0719985961914 46.31399917602539,43.191001892089844 46.31399917602539,43.191001892089844 C49.98099899291992,39.52399826049805 55.41400146484375,38.301998138427734 60.167999267578125,39.93199920654297 C75.37999725341797,44.957000732421875 91.81400299072266,47.67399978637695 108.65499877929688,47.67399978637695 C116.1259994506836,47.67399978637695 122.23699951171875,53.784000396728516 122.23699951171875,61.255001068115234 C122.23699951171875,61.255001068115234 122.23699951171875,108.65599822998047 122.23699951171875,108.65599822998047 C122.23699951171875,116.12699890136719 116.1259994506836,122.23699951171875 108.65499877929688,122.23699951171875 C-18.878999710083008,122.23699951171875 -122.23799896240234,18.8799991607666 -122.23799896240234,-108.65499877929688 C-122.23799896240234,-116.125 -116.1259994506836,-122.23699951171875 -108.65599822998047,-122.23699951171875 C-108.65599822998047,-122.23699951171875 -61.11800003051758,-122.23699951171875 -61.11800003051758,-122.23699951171875 C-53.64799880981445,-122.23699951171875 -47.5359992980957,-116.125 -47.5359992980957,-108.65499877929688 C-47.5359992980957,-91.677001953125 -44.82099914550781,-75.37899780273438 -39.79600143432617,-60.16699981689453 C-38.30099868774414,-55.41299819946289 -39.38800048828125,-50.117000579833984 -43.191001892089844,-46.3129997253418 C-43.191001892089844,-46.3129997253418 -73.06999969482422,-16.43400001525879 -73.06999969482422,-16.43400001525879z"></path></g></g><g transform="matrix(1.006386160850525,0,0,1.006386160850525,-1.5965423583984375,29.403457641601562)" opacity="1" style="display: block;"><g opacity="1" transform="matrix(1,0,0,1,250,250.00100708007812)"><path fill="rgb(66,133,244)" fill-opacity="1" d=" M0,189.81100463867188 C98.76300048828125,143.23500061035156 134.01400756835938,58.95600128173828 143.03900146484375,-1.9559999704360962 C144.86599731445312,-15.611000061035156 145.91799926757812,-29.36199951171875 146.19500732421875,-43.13800048828125 C146.19500732421875,-43.13800048828125 146.19500732421875,-146.28900146484375 146.19500732421875,-146.28900146484375 C146.19500732421875,-146.28900146484375 0,-189.81100463867188 0,-189.81100463867188 C0,-189.81100463867188 -146.19500732421875,-146.28900146484375 -146.19500732421875,-146.28900146484375 C-146.19500732421875,-146.28900146484375 -146.19500732421875,-43.13800048828125 -146.19500732421875,-43.13800048828125 C-145.91799926757812,-29.36199951171875 -144.86599731445312,-15.611000061035156 -143.03900146484375,-1.9529999494552612 C-134.01100158691406,58.95600128173828 -98.76300048828125,143.23500061035156 0,189.81100463867188z"></path></g><g opacity="1" transform="matrix(1.1310886144638062,0,0,1.1310886144638062,249.9949951171875,218.42999267578125)"><path fill="rgb(23,90,187)" fill-opacity="1" d=" M-75.11299896240234,76.97899627685547 C-75.11299896240234,56.79899978637695 -40.19300079345703,40.38100051879883 0.003000000026077032,39.64799880981445 C40.20600128173828,40.38100051879883 75.11799621582031,56.79899978637695 75.11799621582031,76.97899627685547 C75.11799621582031,76.97899627685547 75.11799621582031,79.08899688720703 75.11799621582031,79.08899688720703 C89.22100067138672,61.79600143432617 96.92500305175781,40.152000427246094 96.92500305175781,17.836000442504883 C96.92500305175781,-35.334999084472656 53.17300033569336,-79.08899688720703 0,-79.08899688720703 C-53.17100143432617,-79.08899688720703 -96.92500305175781,-35.334999084472656 -96.92500305175781,17.836000442504883 C-96.92500305175781,40.152000427246094 -89.21800231933594,61.79600143432617 -75.11499786376953,79.08899688720703 C-75.11499786376953,79.08899688720703 -75.11299896240234,76.97899627685547 -75.11299896240234,76.97899627685547z"></path></g><g opacity="1" transform="matrix(1.1872695684432983,0,0,1.1872695684432983,250.0019989013672,295.635986328125)"><path fill="rgb(255,255,255)" fill-opacity="1" d=" M75.11299896240234,-0.22699999809265137 C75.11299896240234,-20.406999588012695 40.194000244140625,-36.82400131225586 -0.0020000000949949026,-37.55699920654297 C-40.20600128173828,-36.82400131225586 -75.11699676513672,-20.406999588012695 -75.11699676513672,-0.22699999809265137 C-75.11699676513672,-0.22699999809265137 -75.11699676513672,1.8839999437332153 -75.11699676513672,1.8839999437332153 C-56.722999572753906,24.44499969482422 -29.111000061035156,37.55799865722656 -0.0020000000949949026,37.55799865722656 C29.108999252319336,37.55799865722656 56.72100067138672,24.44499969482422 75.11599731445312,1.8839999437332153 C75.11599731445312,1.8839999437332153 75.11299896240234,-0.22699999809265137 75.11299896240234,-0.22699999809265137z"></path></g><g opacity="1" transform="matrix(1.1872695684432983,0,0,1.1872695684432983,250,201.53700256347656)"><path fill="rgb(255,255,255)" fill-opacity="1" d=" M-38.77000045776367,-0.0010000000474974513 C-38.77000045776367,-21.270000457763672 -21.26799964904785,-38.770999908447266 0.0010000000474974513,-38.770999908447266 C21.268999099731445,-38.770999908447266 38.770999908447266,-21.270000457763672 38.770999908447266,-0.0010000000474974513 C38.770999908447266,21.26799964904785 21.268999099731445,38.770999908447266 0.0010000000474974513,38.770999908447266 C-21.266000747680664,38.76499938964844 -38.76499938964844,21.264999389648438 -38.77000045776367,-0.0010000000474974513z"></path></g></g><g style="display: none;" transform="matrix(0.7099999785423279,0,0,0.7099999785423279,231.71800231933594,241.47000122070312)" opacity="1"><g opacity="1" transform="matrix(1,0,0,1,0,0)"><path stroke-linecap="round" stroke-linejoin="miter" fill-opacity="0" stroke-miterlimit="4" stroke="rgb(0,235,105)" stroke-opacity="1" stroke-width="30" d=" M-70.5,83.5 C-70.5,83.5 -16,144 -16,144 C-16,144 122,-58 122,-58"></path></g></g></g></svg>